# xmcd
# Copyright (C) 1995-1998 Ti Kan
#
# Track frame offsets:
#       150
#       2325
#       4080
#       4965
#
# Disc length: 76 seconds
#
# Revision: 0
# Processed by: cddbd v1.5.2PL0 Copyright (c) Steve Scherf et al.
# Submitted via: CD-Import v1.0
#
DISCID=1b004a04
DTITLE=Sebastian Rüegg - Rhythmtime Jingles
DYEAR=2011
DGENRE=
TTITLE0=Rhythmtime Jingle 1
TTITLE1=Rhythmtime Jingle 2
TTITLE2=Rhythmtime Jingle 3
TTITLE3=Rhythmtime Jingle 4
EXTD=
EXTT0=
EXTT1=
EXTT2=
EXTT3=
PLAYORDER=
